<svg id="Layer_1" enable-background="new 0 0 128 128" viewBox="0 0 128 128" xmlns="http://www.w3.org/2000/svg"><g><path d="m13.7 127h43.5 1.8c1.7 0 3-1.3 3-3s-1.3-3-3-3h-1.8c-4.3 0-8.3-1.9-10.9-5.3-2.7-3.3-3.7-7.6-2.7-11.8l21.1-94 .5.5c4.2 4.3 9.8 6.6 15.8 6.6s11.6-2.3 15.8-6.5l.5-.5 21.1 94c.9 4.2-.1 8.5-2.7 11.8-2.7 3.3-6.7 5.3-10.9 5.3h-.8c-1.7 0-3 1.3-3 3s1.3 3 3 3h.8c6.1 0 11.8-2.7 15.6-7.5s5.2-10.9 3.9-16.9l-22.4-99.4c-.2-1.1-1-1.9-2.1-2.2-1-.3-2.2 0-3 .8l-4.3 4.3c-3 3.1-7.1 4.8-11.5 4.8s-8.5-1.7-11.5-4.8l-4.3-4.3c-.8-.8-1.9-1.1-3-.8s-1.9 1.2-2.1 2.2l-22.3 99.3c-1.3 6 .1 12.1 3.9 16.9.4.5.9 1 1.3 1.5h-29.3c-2.6 0-4.7-2.1-4.7-4.7 0-1.4.6-2.8 1.8-3.7s2.6-1.2 4-.9l11.9 2.8c1.6.4 3.2-.6 3.6-2.2s-.6-3.2-2.2-3.6l-11.9-2.8c-3.2-.7-6.5 0-9.1 2.1-2.6 2-4 5.1-4 8.4-.1 5.8 4.7 10.6 10.6 10.6z"/><path d="m58.4 71.1c-1.6.3-2.7 1.9-2.4 3.5l9 45.1c.8 4.2 4.6 7.3 8.9 7.3h1c2.3 0 4.4-.9 6-2.3 1.6 1.4 3.7 2.3 6 2.3 4.3 0 8-3.1 8.9-7.3l9-45.1c.3-1.6-.7-3.2-2.4-3.5-1.6-.3-3.2.7-3.5 2.4l-9 45.1c-.3 1.4-1.5 2.4-3 2.4-1.7 0-3-1.4-3-3v-34c0-1.7-1.3-3-3-3s-3 1.3-3 3v34c0 1.7-1.4 3-3 3h-1c-1.4 0-2.7-1-3-2.4l-9-45.1c-.3-1.7-1.9-2.8-3.5-2.4z"/><circle cx="71" cy="34" r="3"/><circle cx="91" cy="34" r="3"/></g></svg>