<svg id="Layer_1" enable-background="new 0 0 128 128" viewBox="0 0 128 128" xmlns="http://www.w3.org/2000/svg"><g><path d="m50.2 66.1-11.4 17.1c-3.4 5.2-3.8 11.5-.8 17 2.9 5.5 8.4 8.8 14.6 8.8h22.8c6.2 0 11.7-3.3 14.6-8.8s2.6-11.8-.8-17l-11.4-17.1c-3.1-4.6-8.2-7.4-13.8-7.4s-10.7 2.8-13.8 7.4z"/><path d="m44 14c-7.2 0-13 7.2-13 16s5.8 16 13 16 13-7.2 13-16-5.8-16-13-16z"/><path d="m5 64c0 8.8 5.8 16 13 16s13-7.2 13-16-5.8-16-13-16-13 7.2-13 16z"/><path d="m110 48c-7.2 0-13 7.2-13 16s5.8 16 13 16 13-7.2 13-16-5.8-16-13-16z"/><path d="m84 14c-7.2 0-13 7.2-13 16s5.8 16 13 16 13-7.2 13-16-5.8-16-13-16z"/></g></svg>