<svg xmlns="http://www.w3.org/2000/svg" version="1.1" xmlns:xlink="http://www.w3.org/1999/xlink" width="512" height="512" x="0" y="0" viewBox="0 0 512 512" style="enable-background:new 0 0 512 512" xml:space="preserve" class=""><g><path d="M381.333 124.87c-.089 0-.162.048-.249.05V77.366c0-26.234-21.347-47.581-47.581-47.581H178.478c-26.234 0-47.581 21.347-47.581 47.581v47.551c-.081-.002-.149-.047-.23-.047a9.805 9.805 0 0 0-9.811 9.811v29.166a9.805 9.805 0 0 0 9.811 9.811c.081 0 .148-.044.23-.047v10.173c-.081-.002-.149-.047-.23-.047a9.805 9.805 0 0 0-9.811 9.811v29.166a9.805 9.805 0 0 0 9.811 9.811c.081 0 .148-.044.23-.047v202.155c0 26.234 21.347 47.581 47.581 47.581h155.026c26.234 0 47.581-21.347 47.581-47.581V173.608c.087.002.16.05.249.05a9.805 9.805 0 0 0 9.811-9.811v-29.166a9.807 9.807 0 0 0-9.812-9.811zm-19.872 309.764c0 15.407-12.532 27.958-27.958 27.958H178.478c-15.426 0-27.958-12.552-27.958-27.958V77.366c0-15.407 12.532-27.958 27.958-27.958h22.153V62.23a8.673 8.673 0 0 0 8.672 8.672h93.382a8.673 8.673 0 0 0 8.672-8.672V49.408h22.146c15.426 0 27.958 12.552 27.958 27.958z" fill="#2a3edb" opacity="1" data-original="#000000"></path></g></svg>