<svg clip-rule="evenodd" fill-rule="evenodd" stroke-linejoin="round" stroke-miterlimit="2" viewBox="0 0 48 48" xmlns="http://www.w3.org/2000/svg"><g transform="translate(-144 -48)"><g id="Icon" transform="translate(0 2)"><g><path d="m165.745 50.428c.412-.872 1.29-1.428 2.255-1.428s1.843.556 2.255 1.428l5.293 11.184 12.271 1.577c.957.123 1.757.786 2.055 1.704.298.917.041 1.924-.661 2.586l-9.001 8.489 2.292 12.158c.179.948-.205 1.914-.985 2.481s-1.818.634-2.664.171l-10.855-5.937-10.855 5.937c-.846.463-1.884.396-2.664-.171s-1.164-1.533-.985-2.481l2.292-12.158-9.001-8.489c-.702-.662-.959-1.669-.661-2.586.298-.918 1.098-1.581 2.055-1.704l12.271-1.577z" fill="#ffd54f"/></g><g><path d="m164.841 50-5.059 10.689s-11.729 1.508-11.729 1.508c-1.34.172-2.461 1.102-2.878 2.387-.418 1.285-.057 2.695.926 3.622 0 0 8.603 8.114 8.603 8.114s-2.191 11.621-2.191 11.621c-.25 1.328.287 2.681 1.38 3.475 1.093.795 2.546.888 3.732.239 0 0 10.375-5.674 10.375-5.674s10.375 5.674 10.375 5.674c1.186.649 2.639.556 3.732-.239 1.093-.794 1.63-2.147 1.38-3.475 0 0-2.191-11.621-2.191-11.621s8.603-8.114 8.603-8.114c.983-.927 1.344-2.337.926-3.622-.417-1.285-1.538-2.215-2.878-2.387 0 0-11.729-1.508-11.729-1.508s-5.059-10.689-5.059-10.689c-.578-1.221-1.808-2-3.159-2s-2.581.779-3.159 2zm1.807.856c.248-.523.774-.856 1.352-.856s1.104.333 1.352.856c0 0 5.292 11.183 5.292 11.183.146.308.438.521.776.564l12.272 1.578c.573.073 1.053.471 1.231 1.021.179.549.025 1.153-.396 1.549 0 0-9.001 8.49-9.001 8.49-.248.233-.359.577-.296.912l2.292 12.159c.107.568-.123 1.147-.591 1.486-.467.34-1.089.38-1.596.103 0 0-10.855-5.938-10.855-5.938-.299-.163-.661-.163-.96 0l-10.855 5.938c-.507.277-1.129.237-1.596-.103-.468-.339-.698-.918-.591-1.486 0 0 2.292-12.159 2.292-12.159.063-.335-.048-.679-.296-.912l-9.001-8.49c-.421-.396-.575-1-.396-1.549.178-.55.658-.948 1.231-1.021 0 0 12.272-1.578 12.272-1.578.338-.043.63-.256.776-.564 0 0 5.292-11.183 5.292-11.183z"/></g></g></g></svg>