<svg xmlns="http://www.w3.org/2000/svg" version="1.1" xmlns:xlink="http://www.w3.org/1999/xlink" width="512" height="512" x="0" y="0" viewBox="0 0 512 512" style="enable-background:new 0 0 512 512" xml:space="preserve" class=""><g><path d="M399.443 0H84.09a24.835 24.835 0 0 0-24.835 24.835v462.33A24.835 24.835 0 0 0 84.09 512h315.353a24.835 24.835 0 0 0 24.835-24.835V24.835A24.835 24.835 0 0 0 399.443 0zm-10.338 492H94.428a15.173 15.173 0 0 1-15.173-15.173V35.173A15.173 15.173 0 0 1 94.428 20h83.644a6.853 6.853 0 0 1 6.853 6.853 12.035 12.035 0 0 0 12 12h89.684a12.035 12.035 0 0 0 12-12A6.853 6.853 0 0 1 305.462 20h83.643a15.173 15.173 0 0 1 15.173 15.173v441.654A15.173 15.173 0 0 1 389.105 492z" fill="#2a3edb" opacity="1" data-original="#000000" class=""></path></g></svg>